<svg xmlns="http://www.w3.org/2000/svg"  viewBox="0 0 50 50" width="50px" height="50px"><path d="M 13 4 C 8.0414839 4 4 8.0414839 4 13 L 4 37 C 4 41.958516 8.0414839 46 13 46 L 37 46 C 41.958516 46 46 41.958516 46 37 L 46 13 C 46 8.0414839 41.958516 4 37 4 L 13 4 z M 13 6 L 37 6 C 40.877484 6 44 9.1225161 44 13 L 44 37 C 44 40.877484 40.877484 44 37 44 L 13 44 C 9.1225161 44 6 40.877484 6 37 L 6 13 C 6 9.1225161 9.1225161 6 13 6 z M 25.019531 8 A 1.0001 1.0001 0 0 0 24.503906 8.1308594 L 10.503906 16.130859 A 1.0001 1.0001 0 0 0 10 17 L 10 33 A 1.0001 1.0001 0 0 0 10.503906 33.869141 L 24.503906 41.869141 A 1.0001 1.0001 0 0 0 25.496094 41.869141 L 39.496094 33.869141 A 1.0001 1.0001 0 0 0 40 33 L 40 17 A 1.0001 1.0001 0 0 0 39.496094 16.130859 L 25.496094 8.1308594 A 1.0001 1.0001 0 0 0 25.019531 8 z M 25 10.152344 L 38 17.580078 L 38 32.419922 L 25 39.847656 L 12 32.419922 L 12 17.582031 L 25 10.152344 z M 25.001953 12.5 A 1.0001 1.0001 0 0 0 24.517578 12.623047 L 14.517578 18.123047 A 1.0001 1.0001 0 0 0 14 19 L 14 31 A 1.0001 1.0001 0 0 0 14.517578 31.876953 L 24.517578 37.376953 A 1.0001 1.0001 0 0 0 25.482422 37.376953 L 35.482422 31.876953 A 1.0001 1.0001 0 0 0 36 31 L 36 19 A 1.0001 1.0001 0 0 0 35.482422 18.123047 L 25.482422 12.623047 A 1.0001 1.0001 0 0 0 25.001953 12.5 z M 25 14.640625 L 34 19.591797 L 34 30.408203 L 25 35.357422 L 16 30.408203 L 16 19.591797 L 25 14.640625 z"/></svg>